<?xml version="1.0" standalone="no"?>
<!DOCTYPE svg PUBLIC "-//W3C//DTD SVG 20010904//EN"
 "http://www.w3.org/TR/2001/REC-SVG-20010904/DTD/svg10.dtd">
<svg version="1.0" xmlns="http://www.w3.org/2000/svg"
 width="512.000000pt" height="512.000000pt" viewBox="0 0 512.000000 512.000000"
 preserveAspectRatio="xMidYMid meet">

<g transform="translate(0.000000,512.000000) scale(0.100000,-0.100000)"
fill="#000000" stroke="none">
<path d="M2525 5054 c-44 -8 -89 -12 -100 -9 -28 6 -267 -112 -389 -193 -300
-198 -555 -551 -661 -918 -80 -278 -75 -592 16 -824 16 -41 29 -77 29 -80 0
-3 -37 -7 -82 -8 -46 -1 -124 -10 -174 -21 -76 -16 -110 -30 -200 -83 -95 -55
-109 -68 -112 -93 -2 -16 -16 -47 -32 -69 -69 -102 -131 -261 -170 -441 -12
-55 -41 -224 -65 -376 -54 -338 -74 -429 -130 -607 -56 -178 -75 -280 -75
-401 0 -206 66 -323 224 -400 74 -37 91 -41 196 -49 63 -4 143 -6 178 -2 34 3
62 5 62 4 0 -1 -14 -32 -31 -70 -40 -88 -49 -182 -22 -234 28 -53 90 -94 184
-120 116 -33 410 -38 754 -16 137 10 312 17 390 16 77 0 194 2 260 6 82 4 232
-1 470 -16 396 -25 705 -24 830 5 86 19 170 57 209 93 62 59 84 169 51 262 -8
23 -15 44 -15 46 0 2 44 4 98 4 253 1 426 107 499 308 49 136 41 274 -28 481
-51 151 -79 285 -128 619 -71 478 -113 644 -214 835 -39 76 -69 117 -125 173
-41 41 -78 74 -83 74 -5 0 -36 13 -68 29 -78 40 -162 60 -276 68 -83 5 -95 8
-89 22 26 61 59 159 77 231 32 127 31 394 -1 539 -125 557 -540 1035 -1037
1194 -109 34 -128 36 -220 21z m-100 -117 c-11 -8 -47 -28 -80 -46 -57 -31
-58 -31 -30 -6 44 39 87 65 110 65 19 0 19 0 0 -13z m245 4 l25 -7 -25 -16
c-24 -15 -355 -205 -375 -216 -30 -15 26 28 170 132 88 64 165 115 170 115 6
-1 21 -4 35 -8z m160 -50 c0 -5 -39 -31 -87 -59 -49 -27 -106 -60 -128 -73
-65 -37 -33 -11 82 67 104 70 133 84 133 65z m140 -61 c8 -5 12 -11 9 -14 -13
-14 -538 -313 -527 -301 19 21 475 324 488 325 8 0 22 -4 30 -10z m138 -93
l22 -24 -402 -231 c-221 -128 -402 -231 -404 -229 -6 5 732 507 747 507 8 0
25 -10 37 -23z m-1118 10 c0 -2 -10 -12 -22 -23 l-23 -19 19 23 c18 21 26 27
26 19z m1240 -112 c8 -9 9 -19 4 -24 -8 -7 -119 -72 -659 -382 -85 -48 -14 2
292 207 175 117 325 213 334 213 9 1 22 -6 29 -14z m-1391 -153 c-52 -38 -107
-77 -123 -87 l-29 -19 16 31 c10 18 36 41 64 56 26 13 71 38 98 55 84 51 73
36 -26 -36z m1490 39 l21 -29 -403 -232 c-221 -128 -418 -242 -437 -253 -19
-11 -31 -16 -27 -11 12 13 810 553 819 554 4 0 16 -13 27 -29z m85 -110 c3 -5
-74 -55 -172 -111 -97 -56 -193 -112 -212 -123 -19 -11 -32 -17 -28 -12 11 12
392 255 400 255 4 0 9 -4 12 -9z m46 -95 c-16 -14 -139 -84 -129 -73 3 4 32
24 65 46 59 39 92 53 64 27z m-1750 -51 c0 -2 -27 -23 -60 -45 -33 -22 -60
-36 -60 -31 0 6 26 26 58 45 64 39 62 38 62 31z m185 -24 c-20 -19 -380 -259
-383 -256 -2 2 2 15 10 30 9 18 69 59 193 130 178 103 198 114 180 96z m1620
-21 c0 -12 -150 -103 -455 -277 -89 -51 -24 -5 203 144 128 83 237 150 242
149 6 -2 10 -9 10 -16z m-1420 -19 c-26 -26 -650 -448 -653 -442 -1 4 3 25 10
46 13 38 25 46 328 222 173 100 317 182 320 183 2 0 0 -4 -5 -9z m1472 -103
c-6 -17 -376 -230 -391 -225 -6 2 27 29 74 59 47 30 134 87 195 126 101 66
137 78 122 40z m52 -139 c1 -11 -46 -44 -140 -99 -129 -75 -143 -81 -157 -66
-9 8 -14 17 -11 19 2 3 69 48 149 101 150 100 157 101 159 45z m-1614 2 c-12
-10 -556 -374 -568 -380 -5 -2 -7 11 -5 28 3 29 19 40 288 196 157 90 287 165
290 165 2 0 0 -4 -5 -9z m25 -75 c0 -2 -7 -7 -16 -10 -8 -3 -12 -2 -9 4 6 10
25 14 25 6z m325 -41 c-27 -25 -47 -45 -43 -45 3 0 41 21 84 46 l78 46 155 -5
c103 -3 156 -8 159 -16 2 -6 8 -8 14 -5 11 7 128 -16 128 -25 0 -3 -34 -30
-75 -59 -41 -30 -75 -56 -75 -58 0 -2 42 21 93 51 52 30 100 55 109 55 8 0 36
-7 61 -16 l47 -16 -102 -75 c-160 -117 -156 -118 33 -7 130 76 153 77 143 11
-4 -23 -11 -48 -16 -54 -6 -7 -82 -67 -169 -134 -87 -67 -159 -124 -159 -126
0 -4 8 0 198 111 123 72 124 72 94 -24 -16 -50 -26 -62 -117 -138 -145 -121
-145 -121 20 -26 50 29 50 28 6 -56 -98 -185 -241 -305 -392 -329 -30 -5 -56
-7 -58 -5 -3 3 9 14 78 72 14 12 -71 -32 -121 -62 -12 -7 -33 -5 -72 7 -31 10
-56 20 -56 21 0 2 68 58 150 125 83 67 150 124 150 127 0 3 -15 -3 -32 -14
-114 -68 -280 -163 -311 -178 l-37 -18 -30 29 c-17 16 -29 32 -28 36 2 4 86
71 188 149 183 140 229 178 180 149 -179 -107 -422 -240 -432 -236 -7 2 -21
18 -31 35 l-17 31 105 76 c58 42 105 78 105 81 0 2 -50 -26 -111 -61 -62 -36
-115 -65 -118 -65 -4 0 -15 17 -25 37 -20 42 -24 35 60 101 21 17 13 14 -30
-9 -47 -26 -60 -29 -67 -18 -21 34 -80 235 -77 260 3 15 1 26 -4 23 -8 -5 -13
11 -27 89 -9 49 -9 49 23 62 74 31 104 29 74 -5 -7 -7 3 -4 22 7 84 50 122 64
206 77 125 20 124 20 69 -29z m1298 -27 c3 -19 0 -38 -7 -44 -6 -6 -55 -36
-108 -67 l-97 -56 -15 24 c-15 22 -13 24 97 98 62 42 115 76 118 76 4 1 9 -14
12 -31z m14 -172 c-5 -11 -176 -116 -191 -116 -23 0 7 29 91 85 89 59 114 67
100 31z m-1994 -70 c-14 -26 -48 -56 -123 -106 l-105 -70 -6 32 c-3 18 0 38 5
44 15 16 239 144 244 140 2 -2 -5 -20 -15 -40z m1645 21 c2 -10 -11 -23 -38
-37 l-42 -21 7 23 c8 27 43 60 59 55 6 -2 12 -11 14 -20z m352 -89 c0 -18 -19
-34 -93 -75 -98 -56 -107 -59 -107 -43 0 8 187 140 197 140 2 0 3 -10 3 -22z
m-340 -58 c-35 -24 -54 -31 -30 -11 14 11 30 21 35 21 6 0 3 -5 -5 -10z
m-1700 -59 c0 -14 -159 -111 -166 -100 -8 13 -12 10 81 63 89 51 85 49 85 37z
m-55 -157 c-24 -18 -83 -50 -73 -39 10 10 81 54 88 54 3 0 -4 -7 -15 -15z
m2048 -34 c-8 -28 -24 -42 -110 -92 -152 -89 -158 -70 -12 39 68 50 125 90
127 88 2 -1 -1 -17 -5 -35z m-1948 -30 c7 -11 -126 -101 -137 -93 -19 11 -3
31 55 65 68 41 73 42 82 28z m59 -108 c8 -14 -137 -92 -149 -80 -7 7 -7 12 0
15 6 2 35 19 65 38 57 35 75 41 84 27z m464 -64 c9 -9 -8 -25 -76 -70 -93 -62
-103 -66 -121 -44 -10 12 5 24 81 70 51 30 95 55 99 56 3 0 10 -5 17 -12z
m-813 -17 c-6 -5 -77 -48 -160 -96 -82 -48 -170 -98 -194 -112 l-45 -26 25 30
c137 172 155 185 291 202 91 12 93 12 83 2z m423 -23 c22 -22 12 -34 -64 -78
-73 -42 -77 -43 -90 -25 -17 23 -17 23 66 74 74 46 72 45 88 29z m1868 -13
c-25 -19 -37 -19 -30 0 4 8 16 15 28 15 21 -1 21 -1 2 -15z m204 -14 c0 -4
-73 -50 -162 -102 -90 -51 -179 -102 -198 -113 l-35 -21 16 25 c22 34 317 218
352 219 15 1 27 -3 27 -8z m-2400 -19 c0 -5 -19 -19 -42 -32 -45 -24 -43 -18
6 18 32 24 36 26 36 14z m845 -11 c-23 -20 -195 -131 -205 -131 -26 0 -1 20
98 77 107 62 125 71 107 54z m80 -1 c19 -8 19 -9 -2 -9 -12 -1 -25 4 -28 9 -7
12 2 12 30 0z m1610 -9 c-6 -5 -77 -48 -160 -96 -174 -102 -172 -101 -163 -90
12 13 312 194 323 195 5 0 5 -3 0 -9z m-1385 -6 c0 -2 -9 -9 -20 -15 -23 -12
-64 -4 -55 11 6 9 75 13 75 4z m-706 -54 c16 -18 13 -20 -75 -71 -71 -40 -94
-49 -100 -38 -4 7 -5 16 -1 20 13 13 147 107 153 108 3 0 14 -8 23 -19z m2240
-20 c11 -12 17 -23 15 -25 -2 -2 -69 -41 -149 -86 -80 -46 -156 -90 -170 -99
-19 -12 -40 -15 -85 -11 l-59 5 199 126 c208 132 210 133 249 90z m-2607 -28
c3 -8 -119 -84 -212 -131 -21 -11 5 11 96 78 89 68 109 76 116 53z m483 -62
c0 -13 -170 -123 -183 -118 -11 3 159 127 175 127 4 0 8 -4 8 -9z m2204 -51
c6 -21 6 -35 0 -37 -5 -2 -63 -34 -128 -72 l-120 -69 -19 24 c-11 14 -16 28
-12 32 18 19 251 160 260 158 5 -1 14 -18 19 -36z m-2594 -17 c0 -10 -75 -53
-91 -53 -7 0 5 13 27 30 38 29 64 38 64 23z m515 -33 c-3 -5 -11 -10 -16 -10
-6 0 -7 5 -4 10 3 6 11 10 16 10 6 0 7 -4 4 -10z m455 5 c0 -2 -10 -9 -22 -15
-22 -11 -22 -10 -4 4 21 17 26 19 26 11z m-470 -25 c12 -8 9 -10 -13 -10 -16
0 -26 4 -22 10 8 12 16 12 35 0z m-1040 -14 c-33 -30 -342 -257 -346 -254 -2
2 1 20 6 39 9 31 25 43 177 131 93 54 170 98 173 98 2 0 -2 -6 -10 -14z m245
4 c3 -5 -2 -10 -12 -10 -10 0 -29 -3 -43 -6 l-25 -5 25 15 c29 18 46 20 55 6z
m608 3 c-7 -2 -21 -2 -30 0 -10 3 -4 5 12 5 17 0 24 -2 18 -5z m980 0 c-7 -2
-19 -2 -25 0 -7 3 -2 5 12 5 14 0 19 -2 13 -5z m180 0 c-7 -2 -19 -2 -25 0 -7
3 -2 5 12 5 14 0 19 -2 13 -5z m400 0 c-7 -2 -19 -2 -25 0 -7 3 -2 5 12 5 14
0 19 -2 13 -5z m-2643 -7 c0 -3 -13 -14 -30 -26 -16 -12 -30 -18 -30 -13 0 5
12 16 28 25 30 19 32 20 32 14z m2448 -48 c-2 -6 -72 -55 -156 -108 -141 -90
-213 -140 -132 -93 19 11 110 64 202 117 l167 96 71 0 c38 0 70 -4 70 -9 0 -5
-206 -145 -457 -312 l-458 -303 -92 -7 c-105 -8 -173 -34 -238 -92 -89 -78
-142 -215 -132 -343 l5 -70 -406 -235 c-223 -129 -412 -235 -419 -237 -9 -2
-13 7 -13 30 0 18 -3 42 -5 53 -5 17 24 38 199 140 113 66 216 128 228 138 27
22 -7 3 -249 -136 -198 -115 -193 -114 -193 -32 0 28 12 37 143 122 134 87
220 147 157 111 -14 -8 -87 -54 -162 -101 -76 -48 -140 -87 -143 -87 -15 0 -2
50 18 64 l22 17 -23 -12 c-29 -13 -28 -14 -36 39 l-6 42 87 56 c49 31 93 61
98 67 11 11 -84 -40 -147 -80 l-38 -23 -4 22 c-17 80 -37 271 -29 277 5 3 94
64 199 135 104 71 194 133 199 139 11 11 -7 1 -245 -137 l-165 -95 -6 27 c-15
64 -12 70 61 118 75 50 95 70 33 33 -108 -64 -100 -61 -107 -43 -3 8 -6 33 -6
53 0 37 4 41 137 142 203 154 204 153 -25 22 -62 -36 -115 -63 -118 -60 -3 3
-10 54 -15 113 l-10 107 68 70 c67 68 60 74 -22 18 -16 -12 -33 -21 -37 -21
-10 0 -21 105 -13 130 9 29 62 88 94 104 14 8 42 17 61 21 l35 8 -38 -46 c-20
-25 -37 -48 -37 -51 0 -3 43 20 96 50 l96 56 74 -7 74 -7 -110 -105 c-61 -58
-109 -107 -107 -110 3 -2 90 46 195 107 152 87 199 110 229 110 59 0 113 -12
107 -22 -4 -6 3 -5 15 1 12 7 55 11 103 9 l82 -3 -177 -134 c-97 -74 -177
-136 -177 -138 0 -2 3 -2 8 0 4 2 114 66 245 141 l237 137 83 -3 82 -3 -80
-54 c-138 -92 -131 -93 25 -3 l105 60 107 4 c58 2 104 0 102 -3 -2 -4 -50 -33
-106 -65 -106 -59 -368 -231 -368 -240 0 -3 3 -3 8 -1 4 2 129 74 277 160
l270 155 179 7 c125 5 177 4 172 -4 -4 -5 6 -4 21 4 35 18 167 21 161 3z m952
-16 c0 -12 -40 -41 -120 -87 -103 -59 -119 -72 -115 -89 5 -19 5 -19 -5 -3
-25 39 -8 59 110 133 63 40 118 70 122 68 5 -3 8 -13 8 -22z m-525 -11 c45
-20 47 -22 29 -35 -10 -7 -125 -80 -254 -161 -129 -81 -239 -152 -245 -158 -5
-6 1 -4 15 5 106 65 519 298 528 298 6 0 21 -14 33 -31 18 -26 19 -33 8 -43
-8 -7 -222 -147 -476 -310 -255 -164 -463 -300 -463 -303 0 -2 3 -2 8 0 151
91 966 557 968 554 2 -2 7 -23 10 -48 l6 -44 -176 -109 c-97 -60 -176 -111
-176 -113 0 -2 3 -2 8 0 4 2 78 46 165 96 87 51 165 95 173 98 12 5 15 -4 12
-47 l-3 -53 -418 -267 c-229 -147 -421 -271 -425 -275 -8 -9 -27 -20 457 259
206 119 376 216 378 216 2 0 3 -24 1 -52 l-3 -53 -383 -247 c-211 -135 -387
-250 -390 -254 -8 -8 -20 -15 423 240 187 108 342 191 344 185 1 -5 0 -30 -4
-54 l-6 -44 -395 -262 c-217 -144 -394 -263 -394 -266 0 -3 15 4 33 15 17 11
88 52 157 92 69 40 229 139 357 221 127 82 233 149 236 149 11 0 -17 -137 -32
-151 -9 -9 -151 -108 -316 -219 -165 -111 -304 -207 -310 -213 -5 -6 1 -4 15
4 14 9 75 44 135 80 61 35 133 80 160 101 28 21 56 36 63 33 7 -3 11 -1 8 4
-5 7 212 156 247 170 5 2 7 -10 4 -25 -3 -16 -9 -50 -12 -77 l-6 -47 -107 -72
c-164 -108 -163 -114 2 -19 49 29 91 49 94 47 4 -5 -25 -228 -31 -231 -39 -26
-137 -98 -137 -101 0 -3 29 11 65 31 76 43 73 51 50 -110 l-14 -100 -48 -43
c-47 -42 -47 -43 -10 -22 21 13 41 20 44 17 3 -4 0 -53 -8 -109 l-14 -103 -83
-3 c-61 -2 -82 0 -77 9 6 8 2 8 -12 1 -15 -8 -683 -24 -683 -16 0 0 27 20 60
43 57 40 86 70 38 39 -13 -8 -52 -31 -88 -51 l-66 -36 -501 2 c-276 1 -499 5
-495 9 4 4 149 88 322 188 333 193 510 299 510 306 0 3 -3 3 -7 1 -5 -3 -200
-115 -435 -251 l-427 -246 -102 0 -103 0 115 68 c134 80 599 379 614 394 7 8
6 8 -4 3 -8 -4 -192 -111 -409 -236 -392 -227 -396 -229 -454 -229 -57 0 -58
1 -58 28 0 25 10 33 78 72 142 80 773 476 791 496 8 10 39 27 -443 -250 -235
-136 -429 -246 -431 -244 -2 2 -6 23 -9 48 l-6 45 185 114 c102 63 185 116
185 118 0 2 -3 2 -7 0 -5 -2 -83 -47 -174 -100 -91 -53 -172 -97 -179 -99 -10
-2 -16 11 -20 44 l-6 47 81 50 c44 27 230 146 414 264 l333 216 30 -59 c34
-69 81 -113 158 -149 50 -24 66 -26 180 -26 117 0 129 2 185 30 115 56 193
163 214 296 12 75 1 162 -27 220 -14 28 -16 41 -8 50 8 9 8 10 -2 4 -9 -5 -24
5 -44 29 -36 44 -100 83 -174 105 l-55 17 218 137 c120 75 342 215 493 312
307 195 300 193 405 146z m-2015 8 c-29 -19 -70 -39 -70 -34 0 7 63 45 75 45
6 0 3 -5 -5 -11z m2570 -121 c0 -7 -55 -44 -122 -83 -143 -83 -138 -80 -138
-63 1 13 225 157 248 158 6 0 12 -6 12 -12z m-3249 -27 c-6 -10 -77 -66 -158
-123 -192 -135 -175 -127 -171 -83 3 37 5 39 163 130 88 51 164 94 168 94 4 1
3 -8 -2 -18z m3275 -106 c4 -14 5 -27 3 -29 -16 -14 -270 -156 -279 -156 -6 0
-10 10 -8 22 2 16 39 45 133 105 72 46 133 83 137 83 4 0 10 -11 14 -25z
m-3276 -78 c0 -7 -81 -69 -181 -136 l-180 -123 3 38 c3 39 3 39 168 135 91 54
171 97 178 98 6 1 12 -5 12 -12z m3306 -65 c-10 -17 -307 -184 -314 -177 -4 3
0 11 8 15 8 5 78 49 155 98 77 49 144 86 149 81 4 -4 6 -12 2 -17z m-3301
-100 c-27 -26 -385 -256 -389 -251 -2 2 0 14 4 25 5 14 79 62 202 133 106 61
195 111 198 111 2 0 -4 -8 -15 -18z m3335 -33 c0 -11 -56 -49 -162 -110 -90
-51 -174 -99 -186 -108 -23 -14 -24 -13 -20 9 2 18 42 49 178 135 171 109 189
116 190 74z m32 -129 c0 -11 1 -25 2 -30 1 -6 -96 -66 -214 -134 -162 -94
-216 -121 -218 -109 -2 8 2 21 10 28 20 20 400 265 409 265 5 0 10 -9 11 -20z
m-1789 -50 c70 -26 125 -75 162 -141 26 -48 30 -63 29 -139 0 -103 -26 -172
-85 -224 -123 -112 -363 -48 -445 120 -23 48 -26 63 -22 127 11 161 117 277
255 277 29 0 76 -9 106 -20z m-1538 -29 c-13 -12 -455 -292 -471 -298 -8 -3
-11 2 -8 14 4 13 91 69 242 156 130 75 239 137 242 137 2 0 0 -4 -5 -9z m-225
-5 c0 -3 -46 -33 -102 -68 -137 -85 -129 -81 -122 -66 3 7 53 41 112 75 117
67 112 65 112 59z m3581 -99 c-25 -25 -486 -284 -490 -275 -4 12 -32 -8 244
172 225 146 240 155 248 134 4 -12 3 -26 -2 -31z m-3333 -29 c-3 -7 -123 -89
-269 -181 -336 -214 -303 -197 -284 -150 9 21 19 39 23 41 4 2 122 70 262 152
140 81 259 149 263 149 5 1 7 -5 5 -11z m3367 -103 c0 -26 -17 -38 -275 -187
-259 -149 -314 -177 -280 -144 29 29 535 365 545 362 6 -1 10 -15 10 -31z
m-3500 -124 c-15 -13 -450 -280 -469 -287 -11 -4 -15 -2 -11 7 5 11 468 287
485 289 2 0 0 -4 -5 -9z m3535 -13 c0 -19 -31 -41 -182 -128 -276 -159 -284
-163 -275 -154 13 14 441 303 450 304 4 0 7 -10 7 -22z m-3372 -23 c-3 -3
-153 -97 -334 -209 -237 -147 -330 -200 -332 -189 -2 8 0 19 5 24 14 14 647
378 657 379 5 0 7 -2 4 -5z m3407 -131 c3 -20 3 -40 -2 -44 -4 -4 -116 -69
-248 -145 -132 -75 -256 -147 -275 -158 -19 -11 -30 -15 -24 -9 14 16 527 391
535 392 4 0 10 -16 14 -36z m-3377 -158 c-2 -2 -133 -85 -293 -186 -159 -100
-300 -189 -312 -197 -21 -14 -23 -12 -41 24 l-20 38 332 191 331 192 3 -30 c2
-16 2 -31 0 -32z m3410 -18 c3 -23 -12 -34 -175 -128 -210 -121 -201 -116
-188 -102 25 27 341 260 350 258 6 -1 11 -14 13 -28z m-3848 -62 c0 -3 -56
-39 -125 -80 -69 -41 -125 -72 -125 -68 0 5 55 40 123 80 131 76 127 74 127
68z m463 -68 c3 -12 4 -25 1 -29 -2 -4 -119 -80 -260 -169 l-255 -161 -31 18
c-17 10 -31 23 -31 28 0 9 548 333 564 335 4 0 9 -10 12 -22z m3407 -6 c0 -5
-12 -14 -27 -21 l-28 -12 25 21 c29 22 30 23 30 12z m-3391 -178 c-6 -7 -63
-45 -127 -85 -64 -40 -142 -89 -172 -108 -52 -33 -93 -41 -113 -22 -4 4 86 61
200 127 127 73 211 116 215 110 4 -6 2 -16 -3 -22z m2791 32 c0 -5 -148 -116
-155 -116 -3 0 -5 6 -5 14 0 8 35 35 78 60 82 48 82 48 82 42z m95 -132 c-62
-52 -149 -107 -182 -114 -18 -4 -33 -5 -33 -1 1 6 230 140 240 140 3 0 -8 -11
-25 -25z m-2865 -22 c0 -11 -21 -31 -55 -51 -30 -18 -64 -42 -76 -52 -14 -12
-37 -19 -62 -19 -22 0 -38 3 -35 6 6 5 219 132 226 133 1 1 2 -7 2 -17z m3156
-41 c-10 -10 -26 -21 -38 -24 -23 -7 -19 -1 19 24 36 23 40 23 19 0z m-3206
-61 c-8 -5 -24 -10 -35 -10 -17 0 -17 2 -5 10 8 5 24 10 35 10 17 0 17 -2 5
-10z m1274 -49 l69 -6 -77 -44 c-42 -24 -74 -46 -72 -49 6 -5 86 40 134 76
l33 25 207 -7 c114 -3 300 -9 414 -12 127 -4 205 -11 201 -16 -3 -6 3 -5 14 0
12 7 114 12 246 14 205 3 224 2 211 -13 -14 -16 -18 -41 -8 -52 3 -3 28 8 55
25 47 29 51 29 74 14 43 -28 60 -73 59 -156 0 -127 -43 -178 -137 -165 -89 12
-675 6 -922 -10 -208 -13 -921 -27 -1122 -21 -440 12 -687 59 -753 143 -21 27
-26 111 -9 144 18 35 132 71 298 94 41 5 43 5 30 -12 -13 -16 -11 -16 15 1 22
14 58 20 150 26 150 9 796 10 890 1z"/>
<path d="M2154 1724 c-18 -14 -18 -15 4 -4 12 6 22 13 22 15 0 8 -5 6 -26 -11z"/>
<path d="M2104 1694 c-18 -14 -18 -15 4 -4 12 6 22 13 22 15 0 8 -5 6 -26 -11z"/>
<path d="M2034 1654 c-18 -14 -18 -15 4 -4 12 6 22 13 22 15 0 8 -5 6 -26 -11z"/>
<path d="M1964 1614 c-18 -14 -18 -15 4 -4 12 6 22 13 22 15 0 8 -5 6 -26 -11z"/>
<path d="M1908 1584 c-38 -20 -36 -28 2 -9 17 9 30 18 30 20 0 7 -1 6 -32 -11z"/>
<path d="M1844 1544 c-18 -14 -18 -15 4 -4 12 6 22 13 22 15 0 8 -5 6 -26 -11z"/>
<path d="M1774 1504 c-18 -14 -18 -15 4 -4 12 6 22 13 22 15 0 8 -5 6 -26 -11z"/>
<path d="M1504 1474 c-18 -14 -18 -15 4 -4 12 6 22 13 22 15 0 8 -5 6 -26 -11z"/>
<path d="M1704 1464 c-18 -14 -18 -15 4 -4 12 6 22 13 22 15 0 8 -5 6 -26 -11z"/>
<path d="M1648 1434 c-38 -20 -36 -28 2 -9 17 9 30 18 30 20 0 7 -1 6 -32 -11z"/>
<path d="M1584 1394 c-18 -14 -18 -15 4 -4 12 6 22 13 22 15 0 8 -5 6 -26 -11z"/>
<path d="M1514 1354 c-18 -14 -18 -15 4 -4 12 6 22 13 22 15 0 8 -5 6 -26 -11z"/>
<path d="M1804 1334 c-18 -14 -18 -15 4 -4 12 6 22 13 22 15 0 8 -5 6 -26 -11z"/>
<path d="M1458 1324 c-38 -20 -36 -28 2 -9 17 9 30 18 30 20 0 7 -1 6 -32 -11z"/>
<path d="M1388 1284 c-38 -20 -36 -28 2 -9 17 9 30 18 30 20 0 7 -1 6 -32 -11z"/>
<path d="M3324 424 c-18 -14 -18 -15 4 -4 12 6 22 13 22 15 0 8 -5 6 -26 -11z"/>
<path d="M2715 410 c-21 -23 -9 -26 18 -6 10 8 14 17 9 20 -5 3 -17 -3 -27
-14z"/>
<path d="M3280 400 c-9 -6 -10 -10 -3 -10 6 0 15 5 18 10 8 12 4 12 -15 0z"/>
</g>
</svg>
